<?xml version="1.0" encoding="UTF-8"?>
<svg xmlns="http://www.w3.org/2000/svg" xmlns:xlink="http://www.w3.org/1999/xlink" width="96pt" height="96pt" viewBox="0 0 96 96" version="1.1">
<g id="surface1">
<path style="fill:none;stroke-width:1;stroke-linecap:butt;stroke-linejoin:miter;stroke:rgb(81.960784%,82.352941%,83.921569%);stroke-opacity:1;stroke-miterlimit:4;" d="M 79.5 43 C 79.5 63.160156 63.160156 79.5 43 79.5 C 22.839844 79.5 6.5 63.160156 6.5 43 C 6.5 22.839844 22.839844 6.5 43 6.5 C 63.160156 6.5 79.5 22.839844 79.5 43 Z M 79.5 43 "/>
<path style="fill:none;stroke-width:1;stroke-linecap:butt;stroke-linejoin:miter;stroke:rgb(81.960784%,82.352941%,83.921569%);stroke-opacity:1;stroke-miterlimit:4;" d="M 69 69 L 88.5 88.5 "/>
<path style="fill:none;stroke-width:1;stroke-linecap:butt;stroke-linejoin:miter;stroke:rgb(81.960784%,82.352941%,83.921569%);stroke-opacity:1;stroke-miterlimit:4;" d="M 58.328125 55.960938 C 54.660156 51.699219 49.226562 49 43.164062 49 C 37.101562 49 31.667969 51.699219 28 55.960938 "/>
<path style=" stroke:none;fill-rule:nonzero;fill:rgb(81.960784%,82.352941%,83.921569%);fill-opacity:1;" d="M 57 33.5 C 57 34.328125 56.328125 35 55.5 35 C 54.671875 35 54 34.328125 54 33.5 C 54 32.671875 54.671875 32 55.5 32 C 56.328125 32 57 32.671875 57 33.5 Z M 57 33.5 "/>
<path style=" stroke:none;fill-rule:nonzero;fill:rgb(81.960784%,82.352941%,83.921569%);fill-opacity:1;" d="M 32 33.5 C 32 34.328125 31.328125 35 30.5 35 C 29.671875 35 29 34.328125 29 33.5 C 29 32.671875 29.671875 32 30.5 32 C 31.328125 32 32 32.671875 32 33.5 Z M 32 33.5 "/>
</g>
</svg>
